<svg width="463" height="463" viewBox="0 0 463 463" fill="none" xmlns="http://www.w3.org/2000/svg">
<g clip-path="url(#clip0_172_2142)">
<rect width="463" height="463" rx="231.5" fill="white"/>
<path d="M263.2 284.5H199.8C191.048 284.5 183.95 291.598 183.95 300.35V363.75C183.95 372.502 191.048 379.6 199.8 379.6H263.2C271.952 379.6 279.05 372.502 279.05 363.75V300.35C279.05 291.598 271.952 284.5 263.2 284.5ZM168.1 141.85C168.1 133.098 161.002 126 152.25 126H88.85C80.0978 126 73 133.098 73 141.85V205.25C73 214.002 80.0978 221.1 88.85 221.1H136.261L172.498 284.52C177.996 275.079 188.111 268.65 199.8 268.65H199.939L168.1 212.932V189.4H279.05V157.7H168.1V141.85ZM374.15 126H310.75C301.998 126 294.9 133.098 294.9 141.85V205.25C294.9 214.002 301.998 221.1 310.75 221.1H374.15C382.902 221.1 390 214.002 390 205.25V141.85C390 133.098 382.902 126 374.15 126Z" fill="#0A2F53"/>
</g>
<defs>
<clipPath id="clip0_172_2142">
<rect width="463" height="463" fill="white"/>
</clipPath>
</defs>
</svg>
